<?xml version="1.0" standalone="no"?>
<!DOCTYPE svg PUBLIC "-//W3C//DTD SVG 20010904//EN"
 "http://www.w3.org/TR/2001/REC-SVG-20010904/DTD/svg10.dtd">
<svg version="1.0" xmlns="http://www.w3.org/2000/svg"
 width="200.000000pt" height="200.000000pt" viewBox="0 0 200.000000 200.000000"
 preserveAspectRatio="xMidYMid meet">
<metadata>
Created by potrace 1.14, written by Peter Selinger 2001-2017
</metadata>
<g transform="translate(0.000000,200.000000) scale(0.100000,-0.100000)"
fill="#000000" stroke="none">
<path d="M498 1951 c-31 -9 -60 -19 -64 -23 -11 -12 5 -10 60 7 27 8 72 15
100 16 38 0 46 3 31 9 -29 12 -62 10 -127 -9z"/>
<path d="M701 1926 c68 -43 129 -128 145 -201 1 -5 7 -21 12 -35 9 -20 11 -21
11 -6 1 24 -16 81 -36 119 -14 27 -10 33 20 28 4 0 7 3 7 7 0 5 6 9 13 9 6 1
68 5 137 9 145 9 172 9 260 -1 84 -10 74 1 -16 18 -79 15 -394 4 -429 -15 -15
-9 -22 -7 -34 11 -17 27 -87 75 -121 86 -14 4 0 -9 31 -29z"/>
<path d="M389 1903 c-13 -15 -12 -15 9 -4 23 12 28 21 13 21 -5 0 -15 -7 -22
-17z"/>
<path d="M343 1863 c-34 -48 -38 -59 -14 -38 25 22 45 54 38 61 -3 3 -14 -7
-24 -23z"/>
<path d="M470 1854 c-46 -25 -40 -34 8 -10 38 19 185 13 218 -8 13 -9 24 -12
24 -7 0 18 -40 32 -103 37 -34 2 -71 6 -82 8 -11 3 -40 -6 -65 -20z"/>
<path d="M1352 1820 c7 -10 29 -28 49 -40 21 -11 67 -50 102 -85 36 -36 70
-65 75 -65 6 0 20 -21 33 -46 12 -25 37 -66 56 -91 18 -24 31 -49 27 -56 -4
-7 -3 -9 1 -4 9 8 45 -20 45 -35 0 -5 7 -16 15 -24 9 -9 15 -34 15 -61 0 -28
10 -66 24 -97 23 -47 47 -186 32 -186 -3 0 -15 8 -25 18 -33 29 -46 39 -72 52
-13 6 -2 -8 25 -32 27 -23 81 -57 120 -75 75 -33 85 -43 63 -61 -21 -18 -182
-42 -233 -35 l-46 6 5 36 c2 20 1 45 -4 56 -5 14 -8 3 -8 -33 -1 -83 -23 -120
-125 -207 -20 -16 -45 -43 -57 -60 l-22 -30 29 27 c30 28 30 28 32 5 4 -40 -9
-127 -19 -122 -5 4 -9 1 -9 -5 0 -28 -75 -132 -104 -145 -17 -7 -40 -19 -50
-27 -18 -15 -18 -15 2 -20 12 -3 20 -2 19 3 -1 4 18 18 43 31 29 15 50 35 60
55 9 20 20 31 28 28 8 -3 21 -5 31 -5 31 0 78 -52 84 -92 4 -29 1 -39 -13 -43
-9 -3 -22 -17 -28 -30 -7 -15 -20 -25 -32 -25 -11 0 -48 -13 -82 -29 -35 -16
-86 -32 -115 -36 l-52 -7 -10 39 c-11 39 -81 123 -103 123 -7 0 -3 -6 8 -14
11 -8 33 -33 48 -55 27 -39 28 -42 15 -91 -7 -27 -16 -50 -19 -50 -3 0 -15 17
-25 37 l-19 38 -7 -54 c-4 -34 -13 -58 -23 -63 -9 -5 -28 -27 -41 -49 -29 -45
-60 -51 -119 -23 -32 16 -35 20 -45 91 -13 91 -14 138 -2 181 8 28 7 36 -11
54 -15 15 -17 22 -8 28 9 6 6 10 -9 15 -29 9 -26 16 13 42 39 25 55 25 96 -5
34 -26 39 -52 10 -52 -11 0 -20 -4 -20 -10 0 -5 -9 -10 -19 -10 -11 0 -22 -4
-25 -9 -3 -4 6 -6 19 -3 22 4 25 1 25 -27 0 -35 20 -52 100 -81 66 -24 58 -15
-23 24 -68 34 -82 59 -49 89 15 14 25 16 46 7 15 -5 37 -10 49 -9 l22 0 -22 9
c-25 10 -27 20 -14 68 13 45 4 40 -15 -8 -9 -22 -17 -40 -19 -40 -1 0 -22 20
-47 45 l-45 44 41 39 c45 44 102 61 109 33 3 -11 5 -9 6 5 1 20 6 21 74 19 93
-3 87 -1 87 -30 0 -19 -5 -25 -16 -23 -10 2 -19 -4 -21 -12 -4 -13 -3 -13 6 0
9 13 11 11 11 -6 0 -20 -24 -40 -43 -35 -4 1 -7 -4 -5 -11 2 -7 -2 -15 -7 -16
-6 -2 -19 -9 -30 -15 -11 -6 -24 -10 -28 -9 -5 1 -6 -2 -2 -8 3 -5 0 -10 -7
-11 -7 0 -2 -5 11 -10 14 -5 27 -6 30 -1 8 11 54 42 63 42 9 0 6 -30 -5 -48
-5 -7 -2 -19 7 -28 15 -14 17 -14 22 3 10 31 13 37 31 63 14 19 14 22 2 13
-13 -11 -14 -4 -7 64 6 51 5 80 -2 87 -6 6 -44 12 -85 14 -76 4 -89 12 -57 32
11 8 12 10 2 7 -8 -2 -21 -16 -29 -31 -12 -27 -16 -28 -65 -23 -28 2 -70 -1
-93 -8 -30 -9 -55 -10 -85 -3 -23 5 -81 11 -128 13 -49 2 -101 10 -123 19 -33
14 -40 15 -52 2 -13 -12 -10 -19 15 -52 16 -22 42 -51 57 -66 25 -25 26 -30
15 -49 -10 -15 -10 -24 -2 -34 8 -10 5 -14 -14 -19 -37 -9 -109 10 -129 35
-19 24 -22 18 -6 -12 8 -16 7 -28 -5 -53 -8 -18 -13 -41 -10 -52 4 -19 -48
-89 -59 -78 -3 3 -3 -4 0 -16 9 -34 -17 -99 -46 -115 -14 -8 -21 -14 -16 -15
6 0 12 -13 13 -29 2 -25 -3 -33 -33 -47 -19 -9 -35 -20 -35 -24 0 -16 119 3
121 19 5 57 5 83 -2 86 -4 3 -2 16 4 29 7 13 15 22 19 20 4 -3 5 3 1 12 -4 12
-3 15 5 10 7 -4 10 -2 6 7 -6 17 9 54 34 85 17 22 20 23 35 7 10 -9 15 -20 12
-25 -6 -10 22 -33 43 -35 10 -1 27 -5 40 -9 36 -12 25 9 -13 22 -30 11 -73 55
-100 101 -11 18 42 -18 68 -47 10 -10 35 -27 57 -37 21 -9 39 -25 40 -34 2
-36 0 -68 -6 -108 -6 -43 -13 -48 -58 -43 -34 3 -66 -10 -66 -28 0 -10 -5 -23
-12 -30 -8 -8 -8 -12 -1 -12 6 0 18 11 27 26 15 21 23 25 59 22 34 -2 42 -7
48 -28 4 -14 8 -18 10 -10 1 8 3 20 4 25 2 6 3 28 4 49 1 36 2 38 15 21 12
-17 14 -16 18 14 3 18 -2 44 -10 59 -17 31 -24 127 -11 160 5 13 25 29 44 37
40 18 121 20 131 4 3 -6 7 -62 8 -125 1 -99 -1 -117 -16 -131 -10 -9 -18 -26
-18 -39 0 -41 -57 -57 -109 -29 -28 14 -29 13 -35 -11 -4 -14 -4 -28 -2 -33 3
-4 34 -9 69 -10 59 -2 64 0 75 24 7 14 12 40 13 58 0 27 2 29 9 12 5 -11 11
-37 15 -57 3 -21 10 -38 15 -38 5 0 5 13 -1 29 -6 16 -9 42 -7 58 3 26 4 24
17 -17 21 -65 27 -70 86 -70 l52 0 18 48 c19 51 33 72 46 72 5 0 9 -7 9 -15 0
-8 11 -22 25 -31 29 -19 31 -31 8 -56 -9 -10 -11 -18 -5 -18 6 0 19 11 28 25
l16 24 39 -24 c21 -14 48 -25 59 -25 17 0 20 7 20 38 0 21 -7 47 -15 60 -9 12
-22 42 -29 67 l-14 45 33 0 c18 0 63 11 99 25 37 14 78 25 93 25 19 0 40 15
74 53 57 61 64 53 13 -16 -38 -52 -60 -64 -144 -78 -30 -5 -56 -13 -58 -19 -2
-5 -17 -10 -33 -10 -33 0 -38 -19 -14 -60 8 -14 14 -49 15 -77 0 -29 4 -53 9
-53 14 0 18 21 16 90 -3 82 -3 82 -15 75 -5 -3 -10 -2 -10 2 0 9 80 36 96 32
5 -1 22 3 37 9 16 7 33 10 38 6 5 -3 9 0 9 6 0 7 7 10 15 6 8 -3 14 -2 13 2
-3 9 71 82 83 82 4 0 6 -7 3 -15 -4 -8 -1 -15 6 -15 6 0 8 -4 5 -10 -3 -5 1
-10 9 -10 18 0 36 -30 36 -59 0 -12 4 -21 9 -21 11 0 51 -66 51 -83 0 -7 10
-17 23 -22 12 -6 26 -20 32 -32 5 -13 17 -23 27 -23 9 0 20 -4 23 -10 3 -5 18
-10 33 -10 l27 1 -33 27 c-89 74 -103 88 -106 105 -1 10 -7 22 -12 25 -13 8
-38 55 -55 102 -8 19 -25 45 -39 57 -24 21 -24 22 -2 16 34 -8 26 5 -15 24
-27 13 -44 31 -59 62 -12 24 -42 63 -66 86 -31 28 -43 47 -38 56 4 8 11 50 15
94 8 88 16 111 43 119 10 4 33 26 50 51 17 25 35 45 39 44 5 -1 10 0 13 1 18
6 45 8 54 2 6 -3 20 -5 31 -4 11 2 28 -3 38 -11 16 -11 18 -21 12 -61 -4 -27
-16 -57 -26 -67 -11 -11 -19 -31 -19 -46 0 -16 -7 -40 -14 -55 -21 -39 -2 -35
31 7 15 19 31 35 34 35 11 0 59 -154 59 -187 0 -17 -10 -42 -21 -57 -12 -15
-19 -29 -16 -32 2 -2 12 7 21 21 16 25 46 34 46 15 0 -6 11 -15 25 -22 13 -6
28 -24 34 -39 11 -33 22 -39 16 -9 -6 29 -16 45 -52 75 -18 15 -33 34 -33 44
0 9 -9 42 -19 72 -11 30 -21 67 -23 81 -2 15 -12 36 -22 47 -17 18 -17 27 -6
110 l13 90 52 15 c28 9 60 24 69 35 20 23 15 51 -9 51 -9 0 -33 9 -54 20 -34
17 -40 25 -44 62 -14 104 -24 146 -46 176 -18 26 -21 40 -16 72 6 34 2 48 -28
97 -20 32 -47 69 -62 83 -14 14 -40 51 -57 83 -17 32 -45 68 -62 80 -17 12
-54 44 -81 72 -57 56 -162 127 -143 95z m-726 -1206 c-3 -8 0 -11 10 -7 8 3
20 1 27 -5 6 -5 35 -13 62 -17 39 -6 46 -9 30 -16 -16 -6 -17 -8 -3 -8 9 -1
20 4 23 9 12 19 23 10 29 -22 11 -53 12 -73 2 -75 -5 -1 -12 -6 -16 -12 -4 -8
-19 -2 -42 16 -20 15 -50 36 -67 45 -17 9 -31 22 -31 29 0 8 5 7 18 -2 15 -13
16 -12 3 3 -7 10 -17 16 -21 13 -6 -4 -50 47 -50 58 0 2 7 4 15 4 9 0 14 -6
11 -13z m238 -30 c9 -8 16 -19 16 -24 0 -4 13 -17 30 -27 l30 -19 -44 -37
c-25 -20 -47 -37 -49 -37 -2 0 -8 26 -12 58 -3 31 -9 67 -11 80 -5 26 17 30
40 6z m165 -11 c-56 -63 -60 -64 -101 -34 -21 14 -38 29 -38 34 0 4 17 7 38 8
20 0 46 4 57 9 11 5 31 9 44 9 l24 1 -24 -27z m-263 -140 c25 -25 26 -27 8
-40 -10 -7 -21 -13 -26 -13 -12 0 -38 -57 -38 -85 0 -14 -6 -25 -12 -25 -18 0
-66 32 -111 73 -31 28 -35 36 -23 46 7 6 21 9 29 5 9 -3 41 0 71 6 52 11 56
13 50 36 -8 33 17 32 52 -3z m449 17 c-3 -5 -12 -10 -18 -10 -7 0 -6 4 3 10
19 12 23 12 15 0z m-335 -30 c-8 -5 -22 -9 -30 -9 -10 0 -8 3 5 9 27 12 43 12
25 0z m-65 -10 c3 -5 1 -10 -4 -10 -6 0 -11 5 -11 10 0 6 2 10 4 10 3 0 8 -4
11 -10z m-214 -167 c13 -16 12 -17 -3 -4 -17 13 -22 21 -14 21 2 0 10 -8 17
-17z"/>
<path d="M700 535 c-8 -9 -8 -15 -2 -15 12 0 26 19 19 26 -2 2 -10 -2 -17 -11z"/>
<path d="M762 520 c-15 -25 -15 -27 2 -33 11 -4 13 -1 9 10 -4 11 -2 14 5 9
14 -8 16 3 4 21 -6 9 -11 7 -20 -7z"/>
<path d="M375 1820 c-7 -12 2 -12 30 0 19 8 19 9 -2 9 -12 1 -25 -3 -28 -9z"/>
<path d="M636 1794 c-15 -13 -35 -24 -44 -24 -21 -1 -43 -17 -65 -49 -9 -14
-45 -54 -79 -89 -66 -67 -84 -94 -168 -256 -28 -54 -58 -105 -66 -113 -8 -9
-14 -32 -13 -56 1 -23 -4 -55 -11 -72 -6 -17 -10 -62 -8 -102 2 -60 -1 -76
-17 -95 -32 -36 -65 -86 -65 -97 0 -5 5 -13 12 -17 7 -5 9 -2 5 8 -3 9 3 25
14 36 10 12 19 25 19 30 0 5 7 15 15 22 12 10 15 9 15 -6 0 -11 3 -36 6 -56 6
-34 5 -37 -22 -41 l-29 -4 32 -8 c18 -4 30 -12 27 -17 -7 -10 44 -88 57 -88
12 0 11 7 -2 33 -8 17 -3 14 21 -10 l33 -31 -15 -78 c-11 -55 -13 -87 -6 -111
10 -36 9 -38 -62 -143 -27 -39 -30 -62 -14 -95 l14 -30 -5 37 c-5 29 1 49 26
93 38 67 45 72 70 49 19 -17 28 -7 10 11 -4 6 -14 38 -21 71 -10 53 -10 69 4
118 9 31 20 56 24 56 5 0 28 -9 51 -21 36 -17 45 -18 52 -7 7 11 11 10 19 -2
5 -8 10 -21 10 -27 0 -7 7 -13 15 -13 14 0 14 3 1 27 -22 45 -31 96 -15 91 9
-3 13 -16 11 -35 -3 -32 25 -63 58 -63 8 1 0 7 -19 15 -31 14 -33 17 -28 53 6
34 3 39 -27 59 -51 33 -83 81 -88 135 -3 25 -15 60 -28 77 -24 35 -24 51 0
256 16 138 18 143 38 149 9 3 35 40 56 81 21 42 54 89 73 106 20 17 33 32 31
34 -6 7 -73 -59 -100 -101 -16 -22 -28 -48 -28 -58 0 -9 -16 -31 -35 -49 -32
-30 -35 -37 -40 -107 -3 -41 -9 -93 -15 -115 -5 -22 -10 -73 -10 -114 0 -63 3
-78 22 -98 16 -17 21 -34 20 -65 -2 -35 4 -49 39 -90 38 -45 40 -51 33 -93 -3
-25 -10 -45 -15 -45 -5 0 -9 5 -9 11 0 5 -4 7 -10 4 -15 -9 -62 20 -100 62
-25 28 -36 51 -41 88 l-6 50 -2 -57 c-2 -81 -21 -85 -38 -8 -11 48 -7 314 5
337 7 12 12 43 12 68 0 32 7 57 22 77 11 17 38 65 60 107 66 131 88 164 152
226 34 33 72 74 84 92 12 17 38 37 56 43 19 6 40 18 46 26 25 29 137 13 167
-24 12 -15 13 -14 3 6 -6 13 -25 28 -41 34 -16 5 -29 13 -29 17 0 3 -17 7 -38
7 -27 1 -46 -6 -66 -22z"/>
<path d="M335 1790 c-10 -11 -16 -22 -13 -25 3 -3 13 4 23 15 10 11 16 22 13
25 -3 3 -13 -4 -23 -15z"/>
<path d="M260 1744 c-13 -33 -13 -77 0 -69 6 3 10 17 10 31 0 14 5 34 10 45 8
13 7 19 0 19 -6 0 -15 -12 -20 -26z"/>
<path d="M292 1735 c-13 -29 -16 -69 -4 -61 4 2 12 -7 19 -20 9 -19 8 -24 -2
-24 -8 0 -18 8 -24 17 -5 10 -13 15 -17 10 -13 -12 28 -47 56 -47 15 0 38 9
51 19 l24 19 -25 -5 c-20 -3 -29 2 -44 28 -10 18 -19 45 -18 61 1 35 -2 35
-16 3z"/>
<path d="M1355 1643 c27 -14 56 -33 63 -42 11 -14 12 -13 3 5 -6 12 -31 31
-56 43 -63 29 -70 25 -10 -6z"/>
<path d="M1448 1565 c5 -11 12 -27 15 -35 5 -13 6 -13 6 1 1 8 -6 24 -15 35
-15 19 -15 19 -6 -1z"/>
<path d="M1081 1524 c0 -11 3 -14 6 -6 3 7 2 16 -1 19 -3 4 -6 -2 -5 -13z"/>
<path d="M1083 1485 c-3 -9 -3 -45 -1 -80 4 -46 1 -73 -9 -92 -9 -16 -15 -42
-14 -60 0 -18 -4 -35 -10 -38 -7 -5 -6 -11 1 -20 13 -15 -2 -51 -27 -70 -8 -6
-17 -29 -20 -51 -5 -39 -6 -41 -29 -30 -14 6 -28 24 -32 41 -7 25 -9 26 -15
11 -5 -13 3 -28 32 -55 39 -37 58 -77 38 -84 -28 -9 -91 30 -140 87 -28 34
-59 68 -68 76 -21 20 -43 60 -46 85 -11 81 -19 119 -29 122 -6 2 -8 -10 -6
-32 7 -57 -25 -143 -58 -160 -35 -18 -38 -13 -41 51 -1 48 -17 122 -28 136 -3
4 -6 -22 -6 -57 0 -48 -5 -68 -19 -84 -11 -12 -23 -45 -27 -77 -5 -41 -14 -60
-29 -71 -16 -11 -19 -18 -10 -23 9 -6 9 -13 1 -29 -11 -20 -10 -21 42 -21 94
0 150 -19 97 -33 -24 -6 -27 -27 -4 -27 8 0 12 -4 9 -10 -3 -5 -15 -10 -26
-10 -22 0 -22 -3 -9 -50 8 -29 16 -37 50 -47 49 -16 68 -16 109 -2 43 15 55
40 37 76 -8 15 -19 41 -25 57 -9 23 -16 27 -37 23 -13 -2 -27 0 -30 4 -3 5 10
9 29 9 40 0 97 18 97 31 0 5 -19 9 -42 9 -39 0 -40 1 -22 14 17 13 8 14 -75
10 -56 -3 -109 0 -129 7 -30 10 -33 14 -27 38 8 32 4 28 38 33 21 2 30 -3 40
-22 7 -14 20 -26 29 -28 20 -4 49 46 57 98 7 39 36 53 45 23 3 -11 33 -48 66
-83 32 -36 59 -73 60 -82 0 -9 -11 -25 -25 -36 -14 -11 -25 -22 -25 -24 0 -3
18 -5 40 -6 30 -1 43 3 52 17 11 18 15 18 46 5 19 -7 38 -12 42 -9 5 3 11 1
15 -5 4 -6 11 -8 16 -5 5 4 2 16 -7 29 -21 33 -9 115 22 158 13 17 24 40 24
49 0 10 6 20 13 23 10 5 10 7 0 12 -19 8 -16 55 6 103 l18 42 5 -44 c3 -27 18
-62 37 -91 33 -48 26 -60 -17 -30 -13 9 -26 14 -29 11 -7 -8 45 -40 70 -43 12
-1 25 -3 28 -3 4 -1 19 -20 34 -42 28 -43 41 -42 47 1 5 39 55 40 91 2 l28
-29 -28 -10 c-64 -23 -124 -30 -225 -27 -60 2 -108 2 -108 -1 0 -3 10 -10 23
-14 22 -9 22 -9 -5 -16 -45 -11 -35 -35 15 -36 23 -1 53 -4 67 -8 l25 -8 -27
-13 c-16 -7 -28 -20 -28 -29 0 -29 12 -61 20 -56 5 3 11 1 15 -5 3 -5 -3 -10
-14 -10 -22 0 -26 -7 -13 -28 13 -20 128 -35 168 -22 19 7 34 14 34 17 0 24
-26 83 -37 83 -7 0 -13 6 -13 13 0 19 -30 44 -60 50 -22 4 -21 4 6 6 17 0 48
8 67 16 20 8 57 15 82 15 26 0 55 5 65 10 30 16 35 -7 13 -59 -35 -81 -43
-110 -27 -104 8 3 14 10 15 17 2 29 10 60 25 88 23 44 12 79 -41 134 -25 26
-45 51 -45 56 0 5 -9 18 -20 30 -11 12 -31 56 -44 97 l-25 76 0 -92 c-1 -83
-3 -93 -19 -93 -10 0 -22 3 -26 8 -4 4 -12 8 -17 8 -5 1 -13 2 -19 3 -5 0 -10
7 -10 14 0 8 -13 26 -30 40 -16 15 -30 35 -31 45 -1 58 -11 106 -25 127 -10
15 -15 38 -12 60 4 37 1 45 -9 20z m247 -322 c0 -7 -9 -13 -19 -13 -16 0 -19
7 -19 48 l0 47 18 -35 c11 -19 19 -41 20 -47z m-613 35 c-3 -8 -6 -5 -6 6 -1
11 2 17 5 13 3 -3 4 -12 1 -19z m-120 -84 c-1 -1 -12 -5 -24 -8 -19 -6 -23 -4
-23 14 0 12 8 35 18 52 l17 29 7 -42 c4 -24 7 -44 5 -45z m670 5 c-2 -24 -13
-24 -27 0 -14 27 -13 30 9 24 12 -3 19 -13 18 -24z m-600 -22 c-12 -27 -37
-33 -44 -10 -4 10 47 46 54 39 2 -1 -3 -15 -10 -29z m748 -47 c-3 -5 -13 -10
-21 -10 -8 0 -12 5 -9 10 3 6 13 10 21 10 8 0 12 -4 9 -10z m-512 -66 c9 -9
-4 -34 -18 -34 -8 0 -11 8 -8 20 5 20 15 25 26 14z m277 -79 c0 -8 -7 -15 -15
-15 -16 0 -20 12 -8 23 11 12 23 8 23 -8z m-466 -21 c34 -34 10 -59 -29 -30
-16 12 -17 16 -6 30 16 20 16 20 35 0z m546 -14 c0 -5 -7 -10 -15 -10 -8 0
-15 5 -15 10 0 6 7 10 15 10 8 0 15 -4 15 -10z m-606 -19 c3 -5 -1 -12 -10
-15 -22 -9 -24 -8 -24 9 0 16 25 21 34 6z m526 -11 c0 -5 -5 -10 -11 -10 -5 0
-7 5 -4 10 3 6 8 10 11 10 2 0 4 -4 4 -10z m50 0 c0 -5 -4 -10 -10 -10 -5 0
-10 5 -10 10 0 6 5 10 10 10 6 0 10 -4 10 -10z m-460 -19 c0 -5 -9 -11 -20
-14 -22 -6 -28 8 -7 16 19 8 27 8 27 -2z"/>
<path d="M1485 1480 c3 -5 8 -10 11 -10 2 0 4 5 4 10 0 6 -5 10 -11 10 -5 0
-7 -4 -4 -10z"/>
<path d="M1542 1416 c18 -24 39 -52 46 -62 7 -11 3 -1 -8 21 -20 41 -54 85
-65 85 -3 0 9 -20 27 -44z"/>
<path d="M710 1415 c0 -8 2 -15 4 -15 2 0 6 7 10 15 3 8 1 15 -4 15 -6 0 -10
-7 -10 -15z"/>
<path d="M705 1370 c-4 -12 -5 -24 -2 -27 3 -2 8 5 12 17 4 12 5 24 2 27 -3 2
-8 -5 -12 -17z"/>
<path d="M1600 1314 c0 -7 7 -25 15 -40 8 -16 15 -24 15 -18 0 7 -7 25 -15 40
-8 16 -15 24 -15 18z"/>
<path d="M1635 1195 c3 -27 11 -69 17 -92 6 -23 8 -49 5 -58 -4 -8 -3 -15 2
-15 17 0 20 43 5 71 -7 15 -14 47 -14 71 0 24 -5 50 -11 58 -7 11 -8 1 -4 -35z"/>
<path d="M1125 1080 l-50 -7 50 -1 c28 -1 57 3 65 8 17 11 17 11 -65 0z"/>
<path d="M747 1054 c-3 -4 -21 -10 -39 -14 l-33 -8 30 -1 c17 0 41 6 55 14 16
9 20 14 9 15 -9 0 -18 -3 -22 -6z"/>
<path d="M515 940 c-3 -5 -1 -10 4 -10 6 0 11 5 11 10 0 6 -2 10 -4 10 -3 0
-8 -4 -11 -10z"/>
<path d="M496 888 c-4 -22 -1 -37 10 -50 10 -11 12 -18 6 -18 -7 0 -12 -7 -12
-16 0 -14 -3 -14 -15 -4 -9 7 -18 11 -20 8 -3 -3 2 -11 11 -19 14 -11 18 -10
34 11 14 18 16 29 8 43 -5 11 -7 32 -4 48 3 16 2 29 -3 29 -5 0 -11 -14 -15
-32z"/>
<path d="M1402 784 c10 -10 20 -15 24 -12 3 4 -5 12 -18 18 -22 12 -22 12 -6
-6z"/>
<path d="M1472 769 c-13 -16 -19 -29 -14 -29 10 0 46 49 40 55 -2 1 -13 -11
-26 -26z"/>
<path d="M1336 758 c3 -22 0 -39 -7 -44 -8 -4 -9 -3 -5 4 5 8 2 10 -8 6 -19
-7 -21 -24 -3 -24 6 0 17 -12 24 -26 9 -20 9 -23 0 -16 -7 6 -30 7 -52 3 l-40
-7 38 -7 c20 -5 37 -13 37 -19 0 -6 10 -3 21 8 16 14 23 15 26 7 4 -10 10 -10
26 -2 17 9 23 8 34 -7 16 -22 17 -76 1 -92 -18 -18 -56 -14 -78 8 -11 11 -20
16 -20 12 0 -17 37 -42 61 -42 60 0 88 58 53 108 -8 12 -13 25 -10 30 2 4 -12
6 -33 4 -47 -5 -72 19 -52 50 8 12 9 24 3 31 -6 7 -12 21 -16 32 -3 11 -3 3 0
-17z"/>
<path d="M506 771 c-3 -5 -5 -20 -4 -34 2 -21 5 -23 20 -13 10 6 14 12 8 14
-6 2 -7 9 -4 14 5 7 2 8 -6 3 -10 -6 -12 -4 -7 8 7 18 2 23 -7 8z"/>
<path d="M597 764 c-4 -4 -7 -14 -7 -23 0 -11 3 -12 11 -4 6 6 10 16 7 23 -2
6 -7 8 -11 4z"/>
<path d="M943 733 c-46 -2 -83 -7 -83 -11 0 -4 44 -4 98 -1 53 4 100 5 105 2
4 -2 7 1 7 6 0 6 -10 10 -22 9 -13 -1 -60 -4 -105 -5z"/>
<path d="M611 674 c0 -11 3 -14 6 -6 3 7 2 16 -1 19 -3 4 -6 -2 -5 -13z"/>
<path d="M1190 669 c0 -5 9 -9 20 -9 11 0 20 2 20 4 0 2 -9 6 -20 9 -11 3 -20
1 -20 -4z"/>
<path d="M465 579 c-4 -6 -5 -12 -2 -15 2 -3 7 2 10 11 7 17 1 20 -8 4z"/>
<path d="M1116 544 c-4 -9 -4 -19 -1 -22 2 -3 7 3 11 12 4 9 4 19 1 22 -2 3
-7 -3 -11 -12z"/>
<path d="M451 534 c-1 -20 27 -54 45 -54 4 0 -1 7 -13 15 -12 8 -24 25 -26 38
-4 21 -4 21 -6 1z"/>
<path d="M569 523 c-13 -16 -12 -17 4 -4 16 13 21 21 13 21 -2 0 -10 -8 -17
-17z"/>
<path d="M1298 363 c7 -3 16 -2 19 1 4 3 -2 6 -13 5 -11 0 -14 -3 -6 -6z"/>
<path d="M397 353 c-4 -3 -7 -11 -7 -17 0 -6 5 -5 12 2 6 6 9 14 7 17 -3 3 -9
2 -12 -2z"/>
<path d="M1971 314 c0 -11 3 -14 6 -6 3 7 2 16 -1 19 -3 4 -6 -2 -5 -13z"/>
<path d="M1975 250 c-7 -11 14 -55 22 -46 3 3 2 13 -2 23 -5 10 -7 21 -7 26 3
10 -6 9 -13 -3z"/>
<path d="M515 239 c-4 -6 -5 -12 -2 -15 2 -3 7 2 10 11 7 17 1 20 -8 4z"/>
<path d="M182 169 c-19 -22 -35 -45 -37 -52 -13 -50 -19 -57 -70 -71 -46 -14
-94 -46 -67 -46 5 0 15 7 22 15 7 8 20 15 29 15 9 0 32 5 52 10 33 9 37 15 43
51 4 27 18 52 41 76 36 38 40 43 28 43 -5 0 -23 -18 -41 -41z"/>
</g>
</svg>
