<?xml version="1.0" standalone="no"?>
<!DOCTYPE svg PUBLIC "-//W3C//DTD SVG 20010904//EN"
 "http://www.w3.org/TR/2001/REC-SVG-20010904/DTD/svg10.dtd">
<svg version="1.0" xmlns="http://www.w3.org/2000/svg"
 width="200.000000pt" height="200.000000pt" viewBox="0 0 200.000000 200.000000"
 preserveAspectRatio="xMidYMid meet">
<metadata>
Created by potrace 1.14, written by Peter Selinger 2001-2017
</metadata>
<g transform="translate(0.000000,200.000000) scale(0.100000,-0.100000)"
fill="#000000" stroke="none">
<path d="M500 1954 c-25 -9 -53 -17 -62 -18 -28 -4 -76 -46 -131 -116 -48 -59
-52 -69 -50 -114 1 -57 13 -71 58 -71 42 0 43 23 2 55 -15 12 -27 29 -27 38 0
26 109 112 141 112 15 0 43 7 64 16 31 13 49 13 107 4 39 -6 80 -16 92 -22 20
-11 20 -12 -9 -19 -54 -15 -131 -72 -219 -165 -47 -51 -93 -109 -102 -130 -9
-22 -22 -46 -30 -55 -30 -33 -126 -236 -136 -284 -5 -27 -12 -90 -15 -140 -4
-78 -9 -94 -32 -121 -42 -50 -61 -77 -61 -86 0 -10 39 -19 69 -16 19 2 26 -3
34 -27 22 -66 77 -117 62 -57 l-6 27 27 -27 27 -27 -12 -84 c-7 -46 -9 -100
-6 -121 5 -26 3 -42 -8 -54 -38 -44 -67 -121 -67 -183 0 -53 -4 -66 -31 -100
-16 -21 -33 -54 -36 -72 -4 -29 -11 -36 -43 -46 -20 -6 -44 -11 -52 -11 -8 0
-23 -9 -33 -20 l-18 -20 223 2 c189 3 224 5 226 18 12 70 49 181 69 212 29 44
52 48 85 13 13 -14 29 -25 35 -25 27 0 45 -36 44 -89 l-2 -52 -31 5 c-26 4
-25 3 7 -7 21 -7 42 -19 47 -27 6 -8 10 -10 10 -5 1 6 7 -2 15 -16 13 -23 20
-26 78 -28 60 -2 65 0 71 21 9 36 7 39 -15 27 -20 -10 -49 -9 -95 6 -19 6 -21
3 -17 -22 l4 -28 -17 29 c-23 41 -25 75 -4 88 19 12 18 59 -1 150 -8 33 -7 53
1 70 11 22 10 22 -4 4 -9 -11 -16 -32 -16 -48 0 -15 -5 -28 -11 -28 -19 0 -80
41 -74 50 3 4 -1 13 -8 19 -10 8 -14 7 -14 -5 0 -21 63 -74 98 -81 16 -3 29
-12 29 -20 0 -11 -6 -13 -22 -8 -13 4 -31 7 -40 8 -9 1 -14 6 -11 11 4 5 -1 7
-10 3 -11 -4 -27 3 -44 19 l-28 26 35 -23 35 -22 -42 44 c-43 44 -56 76 -29
66 10 -4 16 2 18 16 3 20 10 22 96 27 50 3 92 3 92 0 0 -4 -5 -11 -12 -18 -17
-17 -2 -15 26 3 19 13 32 14 67 6 24 -6 45 -15 47 -20 6 -19 22 -12 22 9 0 12
7 20 18 21 11 0 12 2 4 6 -7 3 -19 0 -26 -6 -10 -8 -16 -8 -24 2 -7 8 -24 13
-39 12 -16 -1 -19 0 -8 2 25 6 44 23 26 23 -8 0 -11 7 -7 18 6 16 5 16 -8 -1
-23 -30 -29 -19 -22 42 5 41 3 66 -6 80 -19 31 1 39 26 10 12 -14 28 -23 35
-21 8 3 11 0 7 -6 -3 -6 -2 -14 4 -17 8 -5 7 -12 -2 -23 -12 -15 -11 -15 13 0
18 11 30 13 37 6 6 -6 12 -6 17 3 5 7 4 10 -3 5 -6 -3 -13 -2 -17 3 -3 6 -13
7 -22 4 -10 -4 -14 -2 -10 4 4 6 -8 23 -26 39 -30 27 -37 29 -102 26 -43 -1
-65 1 -56 7 8 5 -3 9 -33 9 -25 1 -55 6 -65 12 -13 7 -28 7 -46 0 -43 -16 -90
-12 -111 11 -23 26 -10 49 37 66 19 7 29 12 23 12 -6 1 -17 14 -24 30 -13 32
-1 70 23 72 7 0 2 4 -11 9 -20 9 -22 16 -21 66 l2 56 51 -7 c28 -4 61 -7 74
-6 30 1 28 -7 -5 -20 -25 -9 -26 -12 -10 -20 24 -14 21 -26 -6 -33 -20 -5 -23
-11 -19 -35 2 -17 10 -35 18 -42 14 -11 157 -20 173 -10 14 9 16 44 3 68 -9
16 -9 29 -2 49 8 20 7 32 -5 50 -15 24 -15 24 26 24 23 0 39 3 35 7 -4 4 -28
6 -54 5 -37 -2 -43 0 -29 8 22 14 12 33 -11 21 -24 -12 -151 -12 -188 0 -40
12 -36 42 8 65 28 15 31 14 45 -5 8 -12 21 -21 28 -21 15 0 55 68 55 93 0 8 8
21 18 31 18 15 20 14 37 -25 11 -23 41 -64 67 -91 53 -55 62 -90 26 -109 -20
-11 -20 -12 -4 -21 23 -13 66 5 66 27 0 12 4 13 18 6 9 -5 40 -12 67 -16 48
-7 49 -7 34 11 -9 11 -19 27 -23 38 -8 24 11 93 35 127 10 15 19 37 19 48 0
12 7 24 16 28 12 4 13 8 3 13 -9 6 -8 23 7 75 l19 66 7 -42 c4 -23 19 -59 33
-79 23 -34 32 -60 20 -60 -3 0 -17 7 -31 16 -13 9 -27 14 -30 12 -2 -3 20 -18
50 -33 30 -15 67 -41 82 -56 34 -36 44 -36 44 -4 0 14 3 25 8 25 4 0 5 23 3
52 -3 47 -2 50 13 36 24 -25 38 -66 23 -72 -7 -2 -6 -5 4 -5 22 -1 63 -47 56
-64 -6 -16 -141 -52 -158 -41 -8 4 -7 9 2 15 25 16 -9 10 -42 -6 -25 -13 -40
-14 -90 -5 -70 13 -84 8 -42 -13 l28 -15 -35 -9 -35 -10 35 -22 c27 -17 44
-21 74 -16 l39 6 -32 -30 c-17 -16 -31 -33 -31 -38 1 -16 25 -40 38 -36 6 3
12 0 12 -6 0 -6 -8 -11 -18 -11 -26 0 -34 -11 -21 -27 12 -14 107 -16 164 -4
37 8 45 41 16 70 -10 10 -21 29 -23 42 -2 17 -11 23 -37 26 -42 4 -54 13 -20
14 l24 1 -25 8 c-15 6 3 7 47 3 52 -4 77 -2 88 7 9 7 33 16 55 20 47 9 68 -7
51 -37 -8 -14 -11 -15 -12 -3 -2 36 -28 -50 -29 -97 0 -28 -4 -54 -9 -58 -5
-3 6 -22 25 -43 40 -43 45 -85 13 -102 -19 -11 -19 -13 -5 -29 22 -24 20 -63
-4 -89 -21 -23 -37 -26 -65 -16 -18 7 -48 60 -41 72 2 4 -5 9 -16 9 -12 1 -24
6 -27 10 -9 13 -133 9 -158 -5 -15 -8 -40 -10 -73 -6 -34 5 -50 3 -50 -5 0 -6
9 -11 20 -11 11 0 20 -4 20 -9 0 -12 -29 -41 -41 -41 -5 0 -8 -10 -8 -22 1
-17 3 -18 6 -6 2 9 13 20 23 23 10 3 25 16 34 29 8 14 28 25 45 28 27 4 31 1
31 -18 0 -13 4 -25 8 -28 5 -3 6 8 4 25 l-4 29 65 0 c36 0 69 -4 72 -10 7 -12
-29 -97 -53 -123 -9 -11 -27 -23 -39 -28 -13 -5 -23 -14 -23 -20 0 -8 17 -10
56 -6 43 4 54 3 45 -6 -16 -16 -14 -37 4 -37 8 0 15 -4 15 -9 0 -11 84 16 152
50 l48 23 29 -28 c37 -35 55 -80 38 -95 -18 -14 -97 -42 -137 -47 -37 -5 -65
-23 -40 -25 19 -2 -38 -16 -68 -18 -18 -1 -27 9 -43 44 -23 51 -34 59 -24 16
3 -16 1 -48 -6 -70 -13 -42 -29 -55 -29 -23 0 11 -9 27 -20 37 -20 18 -20 17
-20 -21 0 -22 -5 -45 -12 -52 -7 -7 -9 -12 -5 -12 3 0 -4 -11 -16 -24 -12 -13
-30 -35 -40 -50 -21 -30 -56 -34 -101 -11 -24 13 -31 13 -38 3 -11 -19 -10
-30 4 -22 7 5 9 2 5 -8 -9 -25 13 -38 66 -38 56 0 71 12 86 66 6 21 15 46 20
54 8 12 11 11 16 -5 11 -34 23 -50 34 -47 14 3 14 -9 1 -43 -8 -20 -7 -26 2
-23 7 3 14 10 14 16 1 7 2 17 3 22 2 17 24 11 63 -15 20 -14 46 -25 57 -25 17
0 21 6 21 36 0 20 -9 51 -19 68 -11 17 -22 48 -26 69 -7 35 -6 37 20 37 14 0
59 16 98 35 40 19 91 39 115 44 27 6 50 19 63 36 27 33 36 26 15 -12 -32 -58
-68 -82 -141 -92 -37 -6 -73 -15 -78 -20 -6 -6 -22 -11 -35 -11 l-24 0 22 -36
c18 -29 22 -46 18 -95 -2 -32 -1 -59 3 -59 13 0 18 28 16 104 0 42 3 80 9 86
5 5 32 12 59 15 28 3 67 15 88 26 21 10 44 19 51 19 7 0 34 -25 59 -55 34 -42
50 -72 63 -125 l18 -70 135 0 134 0 -6 143 c-7 165 -24 237 -66 281 -31 32
-72 135 -86 213 -3 23 -15 49 -26 59 -24 22 -24 33 3 122 21 68 25 73 58 82
39 11 100 46 100 57 0 5 -28 19 -63 33 -61 25 -62 26 -69 70 -16 102 -27 150
-44 175 -9 14 -18 46 -20 71 -5 61 -32 119 -86 181 -44 52 -51 64 -83 135 -9
20 -22 35 -28 33 -7 -3 -23 5 -37 16 -14 11 -19 17 -11 13 31 -16 -2 16 -68
66 -39 29 -68 57 -65 61 2 4 -1 11 -7 15 -8 4 -9 3 -5 -4 10 -17 5 -15 -55 18
-30 16 -64 30 -77 30 -15 0 -21 4 -16 11 5 9 -18 10 -87 6 -56 -4 -84 -3 -69
3 l25 8 -26 1 c-14 1 -29 -3 -35 -8 -11 -11 -204 -19 -197 -8 2 4 -2 7 -10 7
-18 0 -39 -24 -30 -33 3 -4 1 -7 -5 -7 -6 0 -14 5 -17 10 -3 6 -1 10 6 10 20
0 -18 35 -64 59 -41 21 -129 42 -171 40 -11 0 -41 -7 -66 -15z m20 -29 c-1
-13 -51 -27 -70 -19 -11 5 -7 10 15 20 33 15 56 14 55 -1z m950 -295 c0 -5 -5
-10 -11 -10 -5 0 -7 5 -4 10 3 6 8 10 11 10 2 0 4 -4 4 -10z m-580 -91 c0 -5
9 -9 19 -9 24 0 51 -36 51 -66 0 -28 -24 -48 -49 -41 -11 3 -28 -1 -38 -9 -26
-19 -41 -17 -68 11 -57 56 -14 158 55 133 17 -5 30 -14 30 -19z m-425 11 c3
-5 4 -14 0 -20 -8 -13 -35 -1 -35 16 0 16 26 19 35 4z m741 -15 c22 -34 12
-57 -23 -53 -20 2 -29 9 -31 26 -8 54 26 70 54 27z m147 18 c9 -9 -12 -33 -29
-33 -8 0 -14 7 -14 16 0 8 5 12 10 9 6 -3 10 -1 10 4 0 12 13 15 23 4z m-715
-50 c3 -17 -3 -24 -23 -29 -34 -8 -41 0 -27 32 15 31 46 29 50 -3z m-411 -275
c-3 -8 -6 -5 -6 6 -1 11 2 17 5 13 3 -3 4 -12 1 -19z m495 -20 c-7 -7 -12 -8
-12 -2 0 14 12 26 19 19 2 -3 -1 -11 -7 -17z m-128 -54 c5 -37 3 -42 -19 -52
-24 -11 -25 -10 -25 28 0 51 18 101 29 80 5 -8 11 -33 15 -56z m166 -208 c0
-8 -51 -13 -56 -5 -3 5 9 9 25 9 17 0 31 -2 31 -4z m430 -41 c0 -14 -24 -27
-33 -18 -8 8 16 43 25 37 4 -3 8 -11 8 -19z m-466 -46 c-2 -4 10 -9 26 -12 20
-5 28 -11 24 -21 -6 -16 -44 -29 -44 -15 0 5 5 9 10 9 6 0 10 5 10 10 0 6 -10
10 -23 10 -13 0 -31 6 -41 13 -16 12 -17 16 -5 35 l14 22 17 -22 c9 -12 15
-25 12 -29z m534 13 c2 -7 -3 -12 -12 -12 -9 0 -16 7 -16 16 0 17 22 14 28 -4z
m-603 -22 c3 -5 -1 -10 -10 -10 -9 0 -13 5 -10 10 3 6 8 10 10 10 2 0 7 -4 10
-10z m530 -10 c3 -5 -1 -10 -10 -10 -9 0 -13 5 -10 10 3 6 8 10 10 10 2 0 7
-4 10 -10z m45 0 c0 -5 -4 -10 -10 -10 -5 0 -10 5 -10 10 0 6 5 10 10 10 6 0
10 -4 10 -10z m-602 -240 c13 -29 91 -92 130 -104 20 -7 31 -26 16 -26 -12 0
-84 44 -84 51 0 4 -8 10 -19 14 -16 5 -71 74 -71 90 0 16 17 1 28 -25z m-79
-2 c45 -48 31 -89 -35 -102 -34 -8 -47 3 -58 47 -5 21 -1 33 18 52 31 31 49
31 75 3z m1289 -50 c9 -22 9 -28 -2 -28 -17 0 -40 45 -31 60 8 14 17 6 33 -32z
m-1498 -39 c0 -11 -4 -17 -10 -14 -5 3 -10 13 -10 21 0 8 5 14 10 14 6 0 10
-9 10 -21z"/>
<path d="M1140 1080 l-25 -8 27 -1 c15 -1 30 4 33 9 7 11 0 11 -35 0z"/>
<path d="M715 1061 l-30 -7 37 -5 c20 -3 35 -2 32 2 -2 4 2 10 8 12 19 8 -11
6 -47 -2z"/>
<path d="M703 1033 c9 -2 23 -2 30 0 6 3 -1 5 -18 5 -16 0 -22 -2 -12 -5z"/>
<path d="M161 995 c0 -11 -8 -31 -17 -43 -9 -13 -14 -25 -11 -28 9 -10 38 48
34 69 -4 20 -4 20 -6 2z"/>
<path d="M584 759 c-3 -6 -2 -15 3 -20 5 -5 9 -1 9 11 0 23 -2 24 -12 9z"/>
<path d="M1336 746 c3 -8 -4 -16 -18 -20 -22 -7 -22 -8 -3 -15 18 -7 18 -9
-10 -25 -24 -14 -25 -16 -7 -13 24 6 28 -3 10 -21 -9 -9 -7 -12 10 -12 12 0
22 6 23 13 2 37 7 64 13 78 5 10 2 19 -8 22 -10 4 -13 1 -10 -7z"/>
<path d="M871 737 c-6 -6 -11 -16 -11 -21 0 -6 5 -5 12 2 7 7 27 9 52 6 23 -3
52 -1 66 5 22 10 20 11 -17 6 -23 -3 -53 -1 -66 4 -16 6 -28 6 -36 -2z"/>
<path d="M1030 746 c0 -2 7 -6 15 -10 8 -3 15 -1 15 4 0 6 -7 10 -15 10 -8 0
-15 -2 -15 -4z"/>
<path d="M1350 660 c0 -5 10 -10 23 -10 18 0 19 2 7 10 -19 13 -30 13 -30 0z"/>
<path d="M1106 486 c-31 -66 -31 -63 -6 -76 19 -10 20 -9 9 8 -9 15 -7 28 10
67 30 67 19 68 -13 1z"/>
<path d="M1027 469 c21 -23 22 -26 7 -48 -16 -22 -16 -23 5 -12 29 16 26 42
-7 65 l-27 19 22 -24z"/>
<path d="M1180 377 c14 -8 27 -12 30 -10 7 6 -23 23 -40 23 -8 0 -4 -6 10 -13z"/>
<path d="M911 334 c0 -11 3 -14 6 -6 3 7 2 16 -1 19 -3 4 -6 -2 -5 -13z"/>
<path d="M1040 311 c14 -11 45 -27 69 -35 37 -14 41 -14 31 -1 -7 8 -19 15
-27 15 -7 0 -33 9 -56 21 -42 20 -42 20 -17 0z"/>
<path d="M890 278 c0 -8 7 -21 15 -28 19 -16 19 -1 0 24 -12 16 -15 17 -15 4z"/>
<path d="M1515 270 c-3 -5 -2 -10 4 -10 5 0 13 5 16 10 3 6 2 10 -4 10 -5 0
-13 -4 -16 -10z"/>
<path d="M911 133 c-9 -10 -10 -17 -3 -22 7 -4 8 -12 2 -21 -6 -8 -9 -28 -9
-45 1 -28 2 -27 12 11 7 23 18 48 25 56 18 22 -7 42 -27 21z"/>
<path d="M730 113 c0 -6 8 -17 18 -24 16 -13 16 -13 2 6 -8 11 -16 22 -17 24
-2 2 -3 0 -3 -6z"/>
<path d="M585 58 c-4 -18 -12 -39 -17 -45 -7 -9 -7 -13 0 -13 5 0 14 6 19 13
14 17 24 77 14 77 -5 0 -13 -15 -16 -32z"/>
<path d="M1038 73 c7 -3 16 -2 19 1 4 3 -2 6 -13 5 -11 0 -14 -3 -6 -6z"/>
<path d="M920 10 c0 -5 5 -10 11 -10 5 0 7 5 4 10 -3 6 -8 10 -11 10 -2 0 -4
-4 -4 -10z"/>
</g>
</svg>
